<svg xmlns="http://www.w3.org/2000/svg" viewBox="0 0 643.3 572.89"><title>react-logo</title><g id="Layer_2" data-name="Layer 2"><g id="Layer_1-2" data-name="Layer 1"><path d="M643.3,286.51c0-42.62-53.37-83-135.19-108C527,95.07,518.6,28.72,481.62,7.47,473.1,2.49,463.27,0,452.38,0c-36.06,0-83.26,25.7-131,70.28C273.66,26,226.45.66,190.39.66c-11,0-21,2.36-29.63,7.34-36.85,21.24-45.11,87.46-26.09,170.59C53.11,203.77,0,244,0,286.51s53.37,83,135.19,108.05c-18.88,83.39-10.49,149.74,26.49,171,8.52,5,18.49,7.35,29.5,7.35,36.06,0,83.26-25.7,131-70.29,47.73,44.32,94.94,69.76,131,69.76,11,0,21-2.36,29.63-7.34,36.85-21.24,45.11-87.46,26.1-170.6C590.19,369.38,643.3,329,643.3,286.51ZM452.38,29.24a29.85,29.85,0,0,1,14.82,3.54C485,43,492.77,82,486.74,132c-1.45,12.33-3.81,25.31-6.69,38.55a636.52,636.52,0,0,0-83.27-14.29,638.36,638.36,0,0,0-54.54-65.56C385,51,425.11,29.24,452.38,29.24ZM205.47,353.64q9.25,15.74,18.89,30.69c-18.62-2.76-36.59-6.17-53.77-10.36,4.86-16.92,10.89-34.36,17.71-51.8C193.67,332.66,199.31,343.15,205.47,353.64ZM170.2,199.05c17.18-4.07,35.27-7.61,54-10.36-6.42,10.1-12.85,20.45-18.88,31.08s-11.67,21-17,31.47C181.21,233.66,175.18,216.09,170.2,199.05Zm33.44,87.85c8.13-17.57,17.31-35.14,27.14-52.32,10.23-17.7,20.72-34.48,31.6-50.09,19.54-1.7,39.34-2.62,59.27-2.62s39.6.92,59,2.49q16.32,23.41,31.73,49.83,14.94,25.77,27.27,52.19c-8.26,17.57-17.31,35.14-27.14,52.32-10.23,17.7-20.72,34.48-31.6,50.09-19.54,1.7-39.34,2.62-59.27,2.62s-39.6-.92-59-2.49q-16.32-23.42-31.73-49.83Q216,313.32,203.64,286.9Zm234.19,66.35c6-10.49,11.67-21.11,17-31.6C462,339.22,468,356.79,473,373.84c-17.18,4.19-35.27,7.73-54,10.49C425.37,374.23,431.79,363.87,437.83,353.25Zm-.13-133.88c-6-10.49-12.46-20.72-18.89-30.68,18.62,2.75,36.59,6.16,53.76,10.36-4.85,16.91-10.88,34.35-17.7,51.79C449.5,240.35,443.86,229.86,437.7,219.37Zm-80-66c-11.8-.53-23.87-.92-36.06-.92s-24.52.26-36.45.92a507.61,507.61,0,0,1,36.06-42A537.78,537.78,0,0,1,357.71,153.42ZM175.31,33.31c3.94-2.36,9.05-3.41,15.08-3.41,27.15,0,67.4,21.5,110.15,61a619.35,619.35,0,0,0-54.16,65.43A613.61,613.61,0,0,0,163,170.72c-3-13.11-5.25-25.83-6.82-38C150,82.61,157.61,43.66,175.31,33.31Zm-33,332.92c-13-4.06-25.31-8.52-36.71-13.37-46.42-19.8-76.45-45.76-76.45-66.35s30-46.68,76.45-66.35c11.27-4.85,23.6-9.18,36.32-13.24a629.49,629.49,0,0,0,29.5,79.85A620.7,620.7,0,0,0,142.27,366.23Zm48.65,177.55c-5.9-.14-10.89-1.32-14.82-3.54C158.27,530,150.53,491.06,156.56,441c1.45-12.32,3.81-25.3,6.69-38.55a634.81,634.81,0,0,0,83.27,14.3,640.51,640.51,0,0,0,54.54,65.56C258.32,522,218.19,543.78,190.92,543.78Zm131-82.22a541.49,541.49,0,0,1-36.45-42c11.8.52,23.86.92,36.06.92s24.52-.26,36.45-.92A510.92,510.92,0,0,1,321.91,461.56ZM468,539.71c-3.94,2.36-9.05,3.41-15.08,3.41-27.15,0-67.4-21.64-110.15-61.1a619.5,619.5,0,0,0,54.16-65.44,610.53,610.53,0,0,0,83.39-14.42,365,365,0,0,1,6.82,38.16C493.29,490.41,485.69,529.35,468,539.71Zm69.62-186.85c-11.27,4.85-23.6,9.18-36.32,13.24a629.49,629.49,0,0,0-29.5-79.85,622.89,622.89,0,0,0,29.11-79.47c13,4.07,25.31,8.53,36.84,13.38,46.42,19.8,76.45,45.76,76.45,66.35S584,333.19,537.61,352.86Z" style="fill:#ab62f9"/><circle cx="321.52" cy="286.51" r="59.92" transform="translate(-108.42 311.26) rotate(-45)" style="fill:#ab62f9"/></g></g></svg>
