<svg xmlns="http://www.w3.org/2000/svg" viewBox="0 0 1920 1080"><title>shapes-bg</title><g id="Layer_2" data-name="Layer 2"><g id="Layer_1-2" data-name="Layer 1"><path d="M198,954a60,60,0,1,1,60-60A60.07,60.07,0,0,1,198,954Zm0-110a50,50,0,1,0,50,50A50.06,50.06,0,0,0,198,844Z" style="fill:#27ffb7"/><path d="M1024,863a48,48,0,1,1,48-48A48.05,48.05,0,0,1,1024,863Zm0-86a38,38,0,1,0,38,38A38,38,0,0,0,1024,777Z" style="fill:#a629ff"/><path d="M1673,777a57,57,0,1,1,57-57A57.06,57.06,0,0,1,1673,777Zm0-104a47,47,0,1,0,47,47A47,47,0,0,0,1673,673Z" style="fill:#29a9ff"/><path d="M479.5,141A40.5,40.5,0,1,1,520,100.5,40.55,40.55,0,0,1,479.5,141Zm0-71A30.5,30.5,0,1,0,510,100.5,30.53,30.53,0,0,0,479.5,70Z" style="fill:#27ffb7"/><path d="M349,441a51,51,0,1,1,51-51A51.06,51.06,0,0,1,349,441Zm0-92a41,41,0,1,0,41,41A41,41,0,0,0,349,349Z" style="fill:#27ffb7"/><path d="M127.56,250.33a5,5,0,0,1-4.79-6.44l35.94-119.41a5,5,0,0,1,8.43-2l85.45,90.83a5,5,0,0,1-2.5,8.3L128.7,250.2A4.92,4.92,0,0,1,127.56,250.33Zm38.23-114.68L134.84,238.48l104.53-24.61Z" style="fill:#a629ff"/><path d="M1437.55,216.12a4.91,4.91,0,0,1-1.68-.29l-79.47-28.36a5,5,0,0,1-1.56-8.52l64.29-54.64a5,5,0,0,1,8.16,2.91l15.18,83a5,5,0,0,1-4.92,5.9ZM1367.91,181l63.17,22.54-12.07-66Z" style="fill:#a629ff"/><path d="M435.54,851.33a5,5,0,0,1-4.9-6l17.24-82.6A5,5,0,0,1,456.1,760L519,816.22a5,5,0,0,1-1.77,8.48L437.1,851.08A5.24,5.24,0,0,1,435.54,851.33Zm20.36-78.11-13.7,65.65,63.7-21Z" style="fill:#a629ff"/><path d="M951,209.11a4.86,4.86,0,0,1-1.45-.22L833.31,173.78a5,5,0,0,1-2-8.44l88.52-83.08a5,5,0,0,1,8.29,2.5L955.84,203a5,5,0,0,1-4.87,6.14Zm-106.48-42.4,99.64,30.11L920.38,95.48Z" style="fill:#a629ff"/><path d="M781.08,991.79a3.52,3.52,0,0,1-.56,0,5,5,0,0,1-4-3L715.35,848.51a5,5,0,0,1,5.15-7l152,17.18a5,5,0,0,1,3.46,7.94L785.1,989.76A5,5,0,0,1,781.08,991.79ZM728,852.46,782.2,976.85,862.82,867.7Z" style="fill:#27ffb7"/><path d="M1562.37,402.3a5,5,0,0,1-4.9-6l25.29-121.2a5,5,0,0,1,8.23-2.71l92.32,82.5a5,5,0,0,1-1.77,8.48l-117.61,38.7A4.94,4.94,0,0,1,1562.37,402.3Zm28.41-116.7L1569,389.84l101.16-33.28Z" style="fill:#29a9ff"/><path d="M1799,1013a49,49,0,1,1,49-49A49.05,49.05,0,0,1,1799,1013Zm0-88a39,39,0,1,0,39,39A39.05,39.05,0,0,0,1799,925Z" style="fill:#27ffb7"/><path d="M1717,202a49,49,0,1,1,49-49A49.05,49.05,0,0,1,1717,202Zm0-88a39,39,0,1,0,39,39A39.05,39.05,0,0,0,1717,114Z" style="fill:#a629ff"/><path d="M649.5,337.27a5,5,0,0,1-1.83-.35,5,5,0,0,1-2.75-2.66l-40-91.78a5,5,0,0,1,2.59-6.59l91.78-40a5,5,0,0,1,6.59,2.59l40,91.79a5,5,0,0,1-2.58,6.58l-91.79,40A5,5,0,0,1,649.5,337.27Zm-33.43-94.21,36,82.63,82.62-36-36-82.62Z" style="fill:#29a9ff"/><path d="M162.84,631.26a5.15,5.15,0,0,1-1.22-.15l-93.1-23.42a5,5,0,0,1-3.63-6.07l23.42-93.1a5,5,0,0,1,6.07-3.63l93.1,23.42a5,5,0,0,1,3.63,6.07l-23.42,93.1A5,5,0,0,1,162.84,631.26Zm-87-32,83.4,21,21-83.4-83.4-21Z" style="fill:#29a9ff"/><path d="M1161.59,989.72a5,5,0,0,1-4.95-4.34l-10.77-80.85a5,5,0,0,1,4.3-5.61l80.52-10.73a5,5,0,0,1,5.62,4.29l10.77,80.85a5,5,0,0,1-4.29,5.62l-80.53,10.73A5,5,0,0,1,1161.59,989.72Zm-5.15-81.55,9.45,70.94,70.62-9.41-9.45-70.94Z" style="fill:#29a9ff"/><path d="M1764.59,572.72a5,5,0,0,1-4.95-4.34l-10.77-80.85a5,5,0,0,1,4.3-5.61l80.52-10.73a5,5,0,0,1,5.62,4.29l10.77,80.85a5,5,0,0,1-4.29,5.62l-80.53,10.73A5,5,0,0,1,1764.59,572.72Zm-5.15-81.55,9.45,70.94,70.62-9.41-9.45-70.94Z" style="fill:#27ffb7"/><path d="M1243.7,289.75h-.27L1168,285.69a5,5,0,0,1-4.72-5.26l4-75.45a5,5,0,0,1,5.26-4.72l75.45,4.05a5,5,0,0,1,4.72,5.26l-4,75.45a5,5,0,0,1-5,4.73ZM1173.51,276l65.47,3.52,3.51-65.46L1177,210.51Z" style="fill:#27ffb7"/><path d="M1501.34,1013.41a5,5,0,0,1-3-1l-109.76-81.06a5,5,0,0,1-1-7l81.06-109.76a5,5,0,0,1,7-1l109.76,81.06a5,5,0,0,1,1,7l-81.06,109.76A5,5,0,0,1,1501.34,1013.41Zm-102.75-87.12,101.7,75.12,75.12-101.7-101.7-75.12Z" style="fill:#a629ff"/><path d="M557,1012a40,40,0,1,1,40-40A40,40,0,0,1,557,1012Zm0-70a30,30,0,1,0,30,30A30,30,0,0,0,557,942Z" style="fill:#29a9ff"/><path d="M1111.5,114A36.5,36.5,0,1,1,1148,77.5,36.54,36.54,0,0,1,1111.5,114Zm0-63A26.5,26.5,0,1,0,1138,77.5,26.53,26.53,0,0,0,1111.5,51Z" style="fill:#29a9ff"/><rect width="1920" height="1080" style="fill:none"/></g></g></svg>